<?xml version="1.0" standalone="no"?>
<!DOCTYPE svg PUBLIC "-//W3C//DTD SVG 20010904//EN"
 "http://www.w3.org/TR/2001/REC-SVG-20010904/DTD/svg10.dtd">
<svg version="1.0" xmlns="http://www.w3.org/2000/svg"
 width="827.000000pt" height="827.000000pt" viewBox="0 0 827.000000 827.000000"
 preserveAspectRatio="xMidYMid meet">

<g transform="translate(0.000000,827.000000) scale(0.100000,-0.100000)"
fill="#000000" stroke="none">
<path d="M5970 7780 l0 -490 -1835 0 -1835 0 0 -1431 0 -1430 -356 -991 c-195
-545 -353 -997 -350 -1004 4 -12 68 -14 356 -14 l350 0 0 -720 0 -720 -1150 0
-1150 0 0 -490 0 -490 1150 0 1150 0 0 490 0 490 1835 0 1835 0 0 899 0 899
80 67 c325 275 517 683 550 1167 29 432 -70 836 -284 1158 -70 104 -201 249
-290 320 l-56 45 0 877 0 878 1150 0 1150 0 0 490 0 490 -1150 0 -1150 0 0
-490z m-850 -1924 c425 -68 754 -226 1005 -480 309 -312 465 -721 465 -1220 0
-458 -132 -844 -392 -1146 -220 -256 -584 -456 -961 -529 -140 -27 -345 -47
-356 -35 -8 8 -211 564 -211 576 0 3 62 8 138 11 170 8 289 28 414 71 344 117
564 386 635 776 23 130 23 418 -1 549 -91 497 -415 795 -924 850 -56 6 -229
11 -382 11 l-280 0 0 -567 c0 -312 -4 -563 -8 -557 -10 11 -612 1689 -612
1705 0 7 194 9 683 6 580 -3 698 -6 787 -21z m-1460 -1987 c38 -112 70 -207
70 -211 0 -4 -36 -8 -80 -8 l-80 0 0 228 c1 147 4 221 10 211 5 -9 41 -108 80
-220z m376 -1099 c63 -179 114 -326 114 -327 0 -2 -130 -3 -290 -3 l-290 0 0
323 c0 178 3 327 7 331 4 3 83 5 177 4 l170 -3 112 -325z"/>
</g>
</svg>
